<svg xmlns="http://www.w3.org/2000/svg" width="27.402" height="34.822" viewBox="0 0 27.402 34.822">
  <g id="sync" transform="translate(-9.074)">
    <path id="Path_19" data-name="Path 19" d="M43.3,15l-1.687,1.822a11.292,11.292,0,0,1-6.8,20.729l.446-.468h-.027l1.688-1.771-1.559-1.488-3.348,3.515h0l-1.445,1.517,1.558,1.487h0l3.513,3.348,1.446-1.517L34.811,40A13.743,13.743,0,0,0,43.3,15Z" transform="translate(-12.706 -8.866)" fill="#796efa"/>
    <path id="Path_20" data-name="Path 20" d="M11.667,15.66A11.295,11.295,0,0,1,23.444,6.138L23,6.606h.027L21.337,8.377,22.9,9.865,26.243,6.35h0l1.445-1.517L26.131,3.348h0L22.616,0,21.171,1.517l2.275,2.168A13.744,13.744,0,0,0,14.96,28.69l1.687-1.822A11.312,11.312,0,0,1,11.667,15.66Z" transform="translate(0)" fill="#796efa"/>
  </g>
</svg>
